<mxfile host="app.diagrams.net" agent="Mozilla/5.0 (Windows NT 10.0; Win64; x64; rv:133.0) Gecko/20100101 Firefox/133.0" version="25.0.3">
  <diagram name="Pagina-1" id="QmTglFpPZ-ik11fU1EsH">
    <mxGraphModel dx="2064" dy="1106" grid="1" gridSize="10" guides="1" tooltips="1" connect="1" arrows="1" fold="1" page="1" pageScale="1" pageWidth="827" pageHeight="1169" math="0" shadow="0">
      <root>
        <mxCell id="0" />
        <mxCell id="1" parent="0" />
        <mxCell id="XFqNjo_X8NVLmPYsDmJm-2" value="Tecnico" style="shape=umlActor;verticalLabelPosition=bottom;verticalAlign=top;html=1;" vertex="1" parent="1">
          <mxGeometry x="40" y="280" width="30" height="60" as="geometry" />
        </mxCell>
        <mxCell id="XFqNjo_X8NVLmPYsDmJm-5" style="edgeStyle=orthogonalEdgeStyle;rounded=0;orthogonalLoop=1;jettySize=auto;html=1;entryX=0;entryY=0.5;entryDx=0;entryDy=0;" edge="1" parent="1" source="XFqNjo_X8NVLmPYsDmJm-3" target="XFqNjo_X8NVLmPYsDmJm-4">
          <mxGeometry relative="1" as="geometry" />
        </mxCell>
        <mxCell id="XFqNjo_X8NVLmPYsDmJm-6" value="includes" style="edgeLabel;html=1;align=center;verticalAlign=middle;resizable=0;points=[];" vertex="1" connectable="0" parent="XFqNjo_X8NVLmPYsDmJm-5">
          <mxGeometry x="0.0254" y="2" relative="1" as="geometry">
            <mxPoint as="offset" />
          </mxGeometry>
        </mxCell>
        <mxCell id="XFqNjo_X8NVLmPYsDmJm-38" style="edgeStyle=orthogonalEdgeStyle;rounded=0;orthogonalLoop=1;jettySize=auto;html=1;entryX=0.5;entryY=1;entryDx=0;entryDy=0;" edge="1" parent="1" source="XFqNjo_X8NVLmPYsDmJm-3" target="XFqNjo_X8NVLmPYsDmJm-39">
          <mxGeometry relative="1" as="geometry">
            <mxPoint x="280" y="120" as="targetPoint" />
          </mxGeometry>
        </mxCell>
        <mxCell id="XFqNjo_X8NVLmPYsDmJm-40" value="includes" style="edgeLabel;html=1;align=center;verticalAlign=middle;resizable=0;points=[];" vertex="1" connectable="0" parent="XFqNjo_X8NVLmPYsDmJm-38">
          <mxGeometry x="0.0935" relative="1" as="geometry">
            <mxPoint as="offset" />
          </mxGeometry>
        </mxCell>
        <mxCell id="XFqNjo_X8NVLmPYsDmJm-3" value="Gestione Ticket" style="ellipse;whiteSpace=wrap;html=1;" vertex="1" parent="1">
          <mxGeometry x="210" y="280" width="140" height="70" as="geometry" />
        </mxCell>
        <mxCell id="XFqNjo_X8NVLmPYsDmJm-25" style="edgeStyle=orthogonalEdgeStyle;rounded=0;orthogonalLoop=1;jettySize=auto;html=1;exitX=0;exitY=0;exitDx=0;exitDy=0;entryX=0.5;entryY=1;entryDx=0;entryDy=0;" edge="1" parent="1" source="XFqNjo_X8NVLmPYsDmJm-3" target="XFqNjo_X8NVLmPYsDmJm-7">
          <mxGeometry relative="1" as="geometry" />
        </mxCell>
        <mxCell id="XFqNjo_X8NVLmPYsDmJm-27" value="includes" style="edgeLabel;html=1;align=center;verticalAlign=middle;resizable=0;points=[];" vertex="1" connectable="0" parent="XFqNjo_X8NVLmPYsDmJm-25">
          <mxGeometry x="0.0341" y="-2" relative="1" as="geometry">
            <mxPoint as="offset" />
          </mxGeometry>
        </mxCell>
        <mxCell id="XFqNjo_X8NVLmPYsDmJm-26" style="edgeStyle=orthogonalEdgeStyle;rounded=0;orthogonalLoop=1;jettySize=auto;html=1;exitX=1;exitY=0;exitDx=0;exitDy=0;entryX=0.5;entryY=1;entryDx=0;entryDy=0;" edge="1" parent="1" source="XFqNjo_X8NVLmPYsDmJm-3" target="XFqNjo_X8NVLmPYsDmJm-8">
          <mxGeometry relative="1" as="geometry" />
        </mxCell>
        <mxCell id="XFqNjo_X8NVLmPYsDmJm-28" value="includes" style="edgeLabel;html=1;align=center;verticalAlign=middle;resizable=0;points=[];" vertex="1" connectable="0" parent="XFqNjo_X8NVLmPYsDmJm-26">
          <mxGeometry x="-0.0946" y="1" relative="1" as="geometry">
            <mxPoint x="8" as="offset" />
          </mxGeometry>
        </mxCell>
        <mxCell id="XFqNjo_X8NVLmPYsDmJm-4" value="Calendario" style="ellipse;whiteSpace=wrap;html=1;" vertex="1" parent="1">
          <mxGeometry x="450" y="280" width="140" height="70" as="geometry" />
        </mxCell>
        <mxCell id="XFqNjo_X8NVLmPYsDmJm-7" value="Data" style="ellipse;whiteSpace=wrap;html=1;" vertex="1" parent="1">
          <mxGeometry x="70" y="140" width="140" height="70" as="geometry" />
        </mxCell>
        <mxCell id="XFqNjo_X8NVLmPYsDmJm-8" value="Ora" style="ellipse;whiteSpace=wrap;html=1;" vertex="1" parent="1">
          <mxGeometry x="350" y="140" width="140" height="70" as="geometry" />
        </mxCell>
        <mxCell id="XFqNjo_X8NVLmPYsDmJm-12" value="" style="endArrow=none;html=1;rounded=0;entryX=0;entryY=0.5;entryDx=0;entryDy=0;" edge="1" parent="1" target="XFqNjo_X8NVLmPYsDmJm-3">
          <mxGeometry width="50" height="50" relative="1" as="geometry">
            <mxPoint x="80" y="315" as="sourcePoint" />
            <mxPoint x="210" y="340" as="targetPoint" />
          </mxGeometry>
        </mxCell>
        <mxCell id="XFqNjo_X8NVLmPYsDmJm-14" value="Operaio" style="shape=umlActor;verticalLabelPosition=bottom;verticalAlign=top;html=1;" vertex="1" parent="1">
          <mxGeometry x="40" y="575" width="30" height="60" as="geometry" />
        </mxCell>
        <mxCell id="XFqNjo_X8NVLmPYsDmJm-16" value="Token" style="ellipse;whiteSpace=wrap;html=1;" vertex="1" parent="1">
          <mxGeometry x="210" y="570" width="140" height="70" as="geometry" />
        </mxCell>
        <mxCell id="XFqNjo_X8NVLmPYsDmJm-17" value="Sistema" style="ellipse;whiteSpace=wrap;html=1;" vertex="1" parent="1">
          <mxGeometry x="210" y="410" width="140" height="70" as="geometry" />
        </mxCell>
        <mxCell id="XFqNjo_X8NVLmPYsDmJm-18" value="Extends" style="endArrow=block;endSize=16;endFill=0;html=1;rounded=0;exitX=0.5;exitY=1;exitDx=0;exitDy=0;entryX=0.5;entryY=0;entryDx=0;entryDy=0;" edge="1" parent="1" source="XFqNjo_X8NVLmPYsDmJm-17" target="XFqNjo_X8NVLmPYsDmJm-16">
          <mxGeometry x="-0.1111" width="160" relative="1" as="geometry">
            <mxPoint x="310" y="520" as="sourcePoint" />
            <mxPoint x="470" y="520" as="targetPoint" />
            <mxPoint as="offset" />
          </mxGeometry>
        </mxCell>
        <mxCell id="XFqNjo_X8NVLmPYsDmJm-19" value="" style="endArrow=none;html=1;rounded=0;entryX=0;entryY=0.5;entryDx=0;entryDy=0;" edge="1" parent="1" target="XFqNjo_X8NVLmPYsDmJm-16">
          <mxGeometry width="50" height="50" relative="1" as="geometry">
            <mxPoint x="80" y="605" as="sourcePoint" />
            <mxPoint x="170" y="590" as="targetPoint" />
          </mxGeometry>
        </mxCell>
        <mxCell id="XFqNjo_X8NVLmPYsDmJm-23" style="edgeStyle=orthogonalEdgeStyle;rounded=0;orthogonalLoop=1;jettySize=auto;html=1;entryX=0.5;entryY=1;entryDx=0;entryDy=0;" edge="1" parent="1" source="XFqNjo_X8NVLmPYsDmJm-20" target="XFqNjo_X8NVLmPYsDmJm-4">
          <mxGeometry relative="1" as="geometry" />
        </mxCell>
        <mxCell id="XFqNjo_X8NVLmPYsDmJm-24" value="includes" style="edgeLabel;html=1;align=center;verticalAlign=middle;resizable=0;points=[];" vertex="1" connectable="0" parent="XFqNjo_X8NVLmPYsDmJm-23">
          <mxGeometry x="0.1719" y="-1" relative="1" as="geometry">
            <mxPoint as="offset" />
          </mxGeometry>
        </mxCell>
        <mxCell id="XFqNjo_X8NVLmPYsDmJm-20" value="Accede" style="ellipse;whiteSpace=wrap;html=1;" vertex="1" parent="1">
          <mxGeometry x="450" y="570" width="140" height="70" as="geometry" />
        </mxCell>
        <mxCell id="XFqNjo_X8NVLmPYsDmJm-21" value="" style="endArrow=none;html=1;rounded=0;entryX=0;entryY=0.5;entryDx=0;entryDy=0;" edge="1" parent="1" target="XFqNjo_X8NVLmPYsDmJm-20">
          <mxGeometry width="50" height="50" relative="1" as="geometry">
            <mxPoint x="350" y="604.52" as="sourcePoint" />
            <mxPoint x="480" y="604.52" as="targetPoint" />
          </mxGeometry>
        </mxCell>
        <mxCell id="XFqNjo_X8NVLmPYsDmJm-61" style="edgeStyle=orthogonalEdgeStyle;rounded=0;orthogonalLoop=1;jettySize=auto;html=1;entryX=1;entryY=0.5;entryDx=0;entryDy=0;" edge="1" parent="1" source="XFqNjo_X8NVLmPYsDmJm-29" target="XFqNjo_X8NVLmPYsDmJm-4">
          <mxGeometry relative="1" as="geometry" />
        </mxCell>
        <mxCell id="XFqNjo_X8NVLmPYsDmJm-29" value="Aggiornare Stato Ticket" style="ellipse;whiteSpace=wrap;html=1;" vertex="1" parent="1">
          <mxGeometry x="690" y="672.14" width="140" height="70" as="geometry" />
        </mxCell>
        <mxCell id="XFqNjo_X8NVLmPYsDmJm-62" style="edgeStyle=orthogonalEdgeStyle;rounded=0;orthogonalLoop=1;jettySize=auto;html=1;exitX=0;exitY=0.5;exitDx=0;exitDy=0;entryX=1;entryY=0.5;entryDx=0;entryDy=0;" edge="1" parent="1" source="XFqNjo_X8NVLmPYsDmJm-30" target="XFqNjo_X8NVLmPYsDmJm-4">
          <mxGeometry relative="1" as="geometry" />
        </mxCell>
        <mxCell id="XFqNjo_X8NVLmPYsDmJm-30" value="Chiudere Ticket" style="ellipse;whiteSpace=wrap;html=1;" vertex="1" parent="1">
          <mxGeometry x="690" y="514.5" width="140" height="70" as="geometry" />
        </mxCell>
        <mxCell id="XFqNjo_X8NVLmPYsDmJm-63" style="edgeStyle=orthogonalEdgeStyle;rounded=0;orthogonalLoop=1;jettySize=auto;html=1;exitX=0;exitY=0.5;exitDx=0;exitDy=0;entryX=1;entryY=0.5;entryDx=0;entryDy=0;" edge="1" parent="1" source="XFqNjo_X8NVLmPYsDmJm-31" target="XFqNjo_X8NVLmPYsDmJm-4">
          <mxGeometry relative="1" as="geometry" />
        </mxCell>
        <mxCell id="XFqNjo_X8NVLmPYsDmJm-64" value="extends" style="edgeLabel;html=1;align=center;verticalAlign=middle;resizable=0;points=[];" vertex="1" connectable="0" parent="XFqNjo_X8NVLmPYsDmJm-63">
          <mxGeometry x="0.0492" y="2" relative="1" as="geometry">
            <mxPoint as="offset" />
          </mxGeometry>
        </mxCell>
        <mxCell id="XFqNjo_X8NVLmPYsDmJm-31" value="Aggiungere Aggiornamenti" style="ellipse;whiteSpace=wrap;html=1;" vertex="1" parent="1">
          <mxGeometry x="690" y="362.14" width="140" height="70" as="geometry" />
        </mxCell>
        <mxCell id="XFqNjo_X8NVLmPYsDmJm-39" value="Stato Lavori" style="ellipse;whiteSpace=wrap;html=1;" vertex="1" parent="1">
          <mxGeometry x="210" y="50" width="140" height="70" as="geometry" />
        </mxCell>
        <mxCell id="XFqNjo_X8NVLmPYsDmJm-41" value="User" style="shape=umlActor;verticalLabelPosition=bottom;verticalAlign=top;html=1;" vertex="1" parent="1">
          <mxGeometry x="30" y="895" width="30" height="60" as="geometry" />
        </mxCell>
        <mxCell id="XFqNjo_X8NVLmPYsDmJm-65" style="edgeStyle=orthogonalEdgeStyle;rounded=0;orthogonalLoop=1;jettySize=auto;html=1;entryX=0;entryY=0.5;entryDx=0;entryDy=0;" edge="1" parent="1" source="XFqNjo_X8NVLmPYsDmJm-42" target="XFqNjo_X8NVLmPYsDmJm-43">
          <mxGeometry relative="1" as="geometry" />
        </mxCell>
        <mxCell id="XFqNjo_X8NVLmPYsDmJm-66" value="includes" style="edgeLabel;html=1;align=center;verticalAlign=middle;resizable=0;points=[];" vertex="1" connectable="0" parent="XFqNjo_X8NVLmPYsDmJm-65">
          <mxGeometry x="0.0048" relative="1" as="geometry">
            <mxPoint as="offset" />
          </mxGeometry>
        </mxCell>
        <mxCell id="XFqNjo_X8NVLmPYsDmJm-42" value="Ticket Creati/Seguiti" style="ellipse;whiteSpace=wrap;html=1;" vertex="1" parent="1">
          <mxGeometry x="200" y="895" width="140" height="70" as="geometry" />
        </mxCell>
        <mxCell id="XFqNjo_X8NVLmPYsDmJm-52" style="edgeStyle=orthogonalEdgeStyle;rounded=0;orthogonalLoop=1;jettySize=auto;html=1;exitX=0;exitY=0;exitDx=0;exitDy=0;entryX=0.5;entryY=1;entryDx=0;entryDy=0;" edge="1" parent="1" source="XFqNjo_X8NVLmPYsDmJm-43" target="XFqNjo_X8NVLmPYsDmJm-46">
          <mxGeometry relative="1" as="geometry" />
        </mxCell>
        <mxCell id="XFqNjo_X8NVLmPYsDmJm-56" value="includes" style="edgeLabel;html=1;align=center;verticalAlign=middle;resizable=0;points=[];" vertex="1" connectable="0" parent="XFqNjo_X8NVLmPYsDmJm-52">
          <mxGeometry x="0.1095" y="-2" relative="1" as="geometry">
            <mxPoint as="offset" />
          </mxGeometry>
        </mxCell>
        <mxCell id="XFqNjo_X8NVLmPYsDmJm-53" style="edgeStyle=orthogonalEdgeStyle;rounded=0;orthogonalLoop=1;jettySize=auto;html=1;exitX=1;exitY=0;exitDx=0;exitDy=0;entryX=0.5;entryY=1;entryDx=0;entryDy=0;" edge="1" parent="1" source="XFqNjo_X8NVLmPYsDmJm-43" target="XFqNjo_X8NVLmPYsDmJm-47">
          <mxGeometry relative="1" as="geometry" />
        </mxCell>
        <mxCell id="XFqNjo_X8NVLmPYsDmJm-57" value="includes" style="edgeLabel;html=1;align=center;verticalAlign=middle;resizable=0;points=[];" vertex="1" connectable="0" parent="XFqNjo_X8NVLmPYsDmJm-53">
          <mxGeometry x="-0.1146" y="2" relative="1" as="geometry">
            <mxPoint as="offset" />
          </mxGeometry>
        </mxCell>
        <mxCell id="XFqNjo_X8NVLmPYsDmJm-54" style="edgeStyle=orthogonalEdgeStyle;rounded=0;orthogonalLoop=1;jettySize=auto;html=1;exitX=0;exitY=1;exitDx=0;exitDy=0;entryX=0.5;entryY=0;entryDx=0;entryDy=0;" edge="1" parent="1" source="XFqNjo_X8NVLmPYsDmJm-43" target="XFqNjo_X8NVLmPYsDmJm-49">
          <mxGeometry relative="1" as="geometry" />
        </mxCell>
        <mxCell id="XFqNjo_X8NVLmPYsDmJm-58" value="includes" style="edgeLabel;html=1;align=center;verticalAlign=middle;resizable=0;points=[];" vertex="1" connectable="0" parent="XFqNjo_X8NVLmPYsDmJm-54">
          <mxGeometry x="0.1531" y="-2" relative="1" as="geometry">
            <mxPoint as="offset" />
          </mxGeometry>
        </mxCell>
        <mxCell id="XFqNjo_X8NVLmPYsDmJm-55" style="edgeStyle=orthogonalEdgeStyle;rounded=0;orthogonalLoop=1;jettySize=auto;html=1;exitX=1;exitY=1;exitDx=0;exitDy=0;entryX=0.5;entryY=0;entryDx=0;entryDy=0;" edge="1" parent="1" source="XFqNjo_X8NVLmPYsDmJm-43" target="XFqNjo_X8NVLmPYsDmJm-48">
          <mxGeometry relative="1" as="geometry" />
        </mxCell>
        <mxCell id="XFqNjo_X8NVLmPYsDmJm-59" value="includes" style="edgeLabel;html=1;align=center;verticalAlign=middle;resizable=0;points=[];" vertex="1" connectable="0" parent="XFqNjo_X8NVLmPYsDmJm-55">
          <mxGeometry x="0.0654" y="4" relative="1" as="geometry">
            <mxPoint as="offset" />
          </mxGeometry>
        </mxCell>
        <mxCell id="XFqNjo_X8NVLmPYsDmJm-43" value="Visualizza" style="ellipse;whiteSpace=wrap;html=1;" vertex="1" parent="1">
          <mxGeometry x="460" y="895" width="140" height="70" as="geometry" />
        </mxCell>
        <mxCell id="XFqNjo_X8NVLmPYsDmJm-45" value="Extends" style="endArrow=block;endSize=16;endFill=0;html=1;rounded=0;exitX=0.5;exitY=0;exitDx=0;exitDy=0;entryX=1;entryY=0.5;entryDx=0;entryDy=0;" edge="1" parent="1" source="XFqNjo_X8NVLmPYsDmJm-4" target="XFqNjo_X8NVLmPYsDmJm-43">
          <mxGeometry width="160" relative="1" as="geometry">
            <mxPoint x="540" y="240" as="sourcePoint" />
            <mxPoint x="920" y="960" as="targetPoint" />
            <Array as="points">
              <mxPoint x="520" y="250" />
              <mxPoint x="910" y="250" />
              <mxPoint x="910" y="930" />
            </Array>
          </mxGeometry>
        </mxCell>
        <mxCell id="XFqNjo_X8NVLmPYsDmJm-46" value="Data/Ora lavori" style="ellipse;whiteSpace=wrap;html=1;" vertex="1" parent="1">
          <mxGeometry x="360" y="770" width="140" height="70" as="geometry" />
        </mxCell>
        <mxCell id="XFqNjo_X8NVLmPYsDmJm-47" value="Stato Lavori" style="ellipse;whiteSpace=wrap;html=1;" vertex="1" parent="1">
          <mxGeometry x="560" y="770" width="140" height="70" as="geometry" />
        </mxCell>
        <mxCell id="XFqNjo_X8NVLmPYsDmJm-48" value="Aggiornamenti" style="ellipse;whiteSpace=wrap;html=1;" vertex="1" parent="1">
          <mxGeometry x="600" y="1010" width="140" height="70" as="geometry" />
        </mxCell>
        <mxCell id="XFqNjo_X8NVLmPYsDmJm-49" value="Informazioni generali" style="ellipse;whiteSpace=wrap;html=1;" vertex="1" parent="1">
          <mxGeometry x="340" y="1010" width="140" height="70" as="geometry" />
        </mxCell>
        <mxCell id="XFqNjo_X8NVLmPYsDmJm-50" value="" style="endArrow=none;html=1;rounded=0;entryX=0;entryY=0.5;entryDx=0;entryDy=0;" edge="1" parent="1" target="XFqNjo_X8NVLmPYsDmJm-42">
          <mxGeometry width="50" height="50" relative="1" as="geometry">
            <mxPoint x="70" y="930" as="sourcePoint" />
            <mxPoint x="160" y="930" as="targetPoint" />
          </mxGeometry>
        </mxCell>
      </root>
    </mxGraphModel>
  </diagram>
</mxfile>
